<svg width="439" height="438" viewBox="0 0 439 438" fill="none" xmlns="http://www.w3.org/2000/svg">
<path d="M393.554 31.8485L303.165 0L392.303 155.829L438.9 123.602L393.554 31.8485Z" fill="#BBBBBB"/>
<path d="M303.165 0L252.838 11.9292L297.099 88.417L293.611 187.298L292.393 224.928L322.407 204.17L392.302 155.829L303.165 0Z" fill="#EEEEEE"/>
<path d="M418.473 204.56L438.899 123.602L292.392 224.929L291.364 265.275L353.887 256.153L418.473 204.56Z" fill="#888888"/>
<path d="M407.051 392.114L438.899 301.726L283.07 390.863L315.297 437.46L407.051 392.114Z" fill="#333333"/>
<path d="M438.899 301.726L426.97 251.398L350.482 295.66L251.601 292.172L213.971 290.954L234.729 320.968L283.07 390.863L438.899 301.726Z" fill="#888888"/>
<path d="M234.339 417.034L315.298 437.46L213.971 290.953L173.624 289.925L182.746 352.448L234.339 417.034Z" fill="#555555"/>
<path d="M407.051 392.114L438.899 301.726L283.07 390.863L315.297 437.46L407.051 392.114Z" fill="#333333"/>
<path d="M438.899 301.726L426.97 251.398L350.482 295.66L251.601 292.172L213.971 290.954L234.729 320.968L283.07 390.863L438.899 301.726Z" fill="#555555"/>
<path d="M234.339 417.034L315.298 437.46L213.971 290.953L173.624 289.925L182.746 352.448L234.339 417.034Z" fill="#888888"/>
<path d="M45.3458 405.612L135.734 437.46L46.597 281.631L1.52588e-05 313.859L45.3458 405.612Z" fill="#888888"/>
<path d="M135.735 437.46L186.062 425.531L141.801 349.043L145.289 250.162L146.507 212.532L116.493 233.29L46.5974 281.631L135.735 437.46Z" fill="#555555"/>
<path d="M20.4263 232.9L0.000473022 313.859L146.507 212.532L147.536 172.186L85.0126 181.308L20.4263 232.9Z" fill="#BBBBBB"/>
<path d="M31.8491 45.346L0.000549316 135.734L155.83 46.5972L123.602 0.000198364L31.8491 45.346Z" fill="white"/>
<path d="M0.000549316 135.734L11.9298 186.062L88.4176 141.801L187.299 145.289L224.929 146.507L204.171 116.493L155.83 46.5973L0.000549316 135.734Z" fill="#EEEEEE"/>
<path d="M204.561 20.4263L123.602 0.000411987L224.929 146.507L265.275 147.536L256.153 85.0125L204.561 20.4263Z" fill="#BBBBBB"/>
<path d="M160.578 231.054L219.454 218.73L232.504 277.6L160.578 231.054Z" fill="#009689"/>
<path d="M206.405 159.86L219.454 218.73L160.578 231.054L206.405 159.86Z" fill="#00D9C6"/>
<path d="M206.405 159.86L278.33 206.406L219.454 218.73L206.405 159.86Z" fill="#00B4A4"/>
<path d="M278.33 206.406L232.504 277.6L219.454 218.73L278.33 206.406Z" fill="#007268"/>
</svg>
