<svg width="500" height="500" viewBox="0 0 500 500" fill="none" xmlns="http://www.w3.org/2000/svg">
<rect width="500" height="500" fill="black"/>
<path d="M424.798 62.7557L334.409 30.9072L423.547 186.736L470.144 154.509L424.798 62.7557Z" fill="#BBBBBB"/>
<path d="M334.409 30.9072L284.081 42.8364L328.343 119.324L324.855 218.205L323.637 255.836L353.651 235.077L423.546 186.736L334.409 30.9072Z" fill="#EEEEEE"/>
<path d="M449.717 235.467L470.143 154.509L323.636 255.836L322.608 296.182L385.131 287.06L449.717 235.467Z" fill="#888888"/>
<path d="M438.294 423.022L470.143 332.633L314.314 421.77L346.541 468.367L438.294 423.022Z" fill="#333333"/>
<path d="M470.143 332.633L458.214 282.306L381.726 326.567L282.845 323.079L245.215 321.861L265.973 351.875L314.314 421.77L470.143 332.633Z" fill="#888888"/>
<path d="M265.583 447.941L346.542 468.367L245.214 321.86L204.868 320.832L213.99 383.355L265.583 447.941Z" fill="#555555"/>
<path d="M438.294 423.022L470.143 332.633L314.314 421.77L346.541 468.367L438.294 423.022Z" fill="#333333"/>
<path d="M470.143 332.633L458.214 282.306L381.726 326.567L282.845 323.079L245.215 321.861L265.973 351.875L314.314 421.77L470.143 332.633Z" fill="#555555"/>
<path d="M265.583 447.941L346.542 468.367L245.214 321.86L204.868 320.832L213.99 383.355L265.583 447.941Z" fill="#888888"/>
<path d="M76.5897 436.519L166.978 468.368L77.8409 312.538L31.2439 344.766L76.5897 436.519Z" fill="#888888"/>
<path d="M166.978 468.368L217.306 456.438L173.045 379.951L176.533 281.069L177.75 243.439L147.737 264.197L77.8413 312.539L166.978 468.368Z" fill="#555555"/>
<path d="M51.6702 263.808L31.2444 344.766L177.751 243.439L178.78 203.093L116.256 212.215L51.6702 263.808Z" fill="#BBBBBB"/>
<path d="M63.093 76.2533L31.2444 166.642L187.074 77.5044L154.846 30.9074L63.093 76.2533Z" fill="white"/>
<path d="M31.2444 166.642L43.1737 216.969L119.661 172.708L218.543 176.196L256.173 177.414L235.415 147.4L187.074 77.5045L31.2444 166.642Z" fill="#EEEEEE"/>
<path d="M235.805 51.3335L154.846 30.9076L256.173 177.415L296.519 178.443L287.397 115.92L235.805 51.3335Z" fill="#BBBBBB"/>
<path d="M191.822 261.961L250.698 249.637L263.748 308.507L191.822 261.961Z" fill="#009689"/>
<path d="M237.648 190.768L250.698 249.637L191.822 261.961L237.648 190.768Z" fill="#00D9C6"/>
<path d="M237.648 190.768L309.574 237.314L250.698 249.637L237.648 190.768Z" fill="#00B4A4"/>
<path d="M309.574 237.313L263.748 308.507L250.698 249.637L309.574 237.313Z" fill="#007268"/>
</svg>
